<!DOCTYPE svg PUBLIC "-//W3C//DTD SVG 20010904//EN" "http://www.w3.org/TR/2001/REC-SVG-20010904/DTD/svg10.dtd">
<svg version="1.0" xmlns="http://www.w3.org/2000/svg" width="130px" height="200px" viewBox="0 0 1300 2000" preserveAspectRatio="xMidYMid meet">
<g id="layer101" fill="#8d3f1e" stroke="none">
 <path d="M85 1933 c-33 -36 -65 -75 -72 -87 -18 -30 -18 -1817 -1 -1834 8 -8 64 -12 188 -12 l175 1 75 81 75 82 3 660 c2 462 6 663 13 673 9 10 73 13 301 13 193 0 297 4 311 11 32 16 116 100 133 131 18 35 20 318 2 336 -9 9 -151 12 -578 12 l-565 -1 -60 -66z"/>
 </g>
<g id="layer102" fill="#ed6923" stroke="none">
 <path d="M129 1983 c-12 -16 -12 -17 2 -6 12 10 150 13 585 16 l569 2 -571 3 c-534 2 -572 1 -585 -15z"/>
 <path d="M6 1824 c-3 -9 -6 -417 -6 -909 0 -747 2 -894 14 -904 9 -8 68 -11 190 -9 l177 3 -1 748 0 748 80 -2 c44 -1 83 1 87 5 3 3 133 6 289 6 155 0 289 3 298 6 14 5 16 29 16 165 l0 159 -569 0 c-509 0 -569 -2 -575 -16z"/>
 </g>
<g id="layer103" fill="#fbc487" stroke="none">
 <path d="M129 1983 c-12 -16 -12 -17 2 -6 12 10 150 13 585 16 l569 2 -571 3 c-534 2 -572 1 -585 -15z"/>
 <path d="M170 955 l0 -745 25 0 25 0 0 720 0 720 385 0 385 0 0 25 0 25 -410 0 -410 0 0 -745z"/>
 <path d="M107 3 c51 -2 135 -2 185 0 51 1 10 3 -92 3 -102 0 -143 -2 -93 -3z"/>
 </g>

</svg>